<svg width="10" height="10" viewBox="0 0 10 10" fill="none" xmlns="http://www.w3.org/2000/svg">
<path d="M2.86868 9.20152C3.42225 9.15845 3.92691 8.87608 4.25448 8.42566L9.23348 1.54238C9.3861 1.33127 9.36323 1.03986 9.17817 0.8548C8.99312 0.670275 8.7017 0.647408 8.49059 0.799496L1.60625 5.78009C1.15743 6.1066 0.875057 6.61125 0.831983 7.16483C0.788909 7.71841 0.989387 8.26028 1.3813 8.6522C1.73813 9.00955 2.21938 9.20737 2.71978 9.20737C2.76923 9.20737 2.81869 9.20524 2.86868 9.20152ZM1.89234 7.24779C1.91095 7.00476 2.03539 6.78302 2.23108 6.6405L6.4305 3.60248L3.39354 7.80083C3.24996 7.99812 3.02821 8.12202 2.78519 8.14117C2.54323 8.15712 2.30553 8.0731 2.1327 7.90027C1.96147 7.72851 1.8732 7.49027 1.89234 7.24779Z" fill="#FFBB01"/>
</svg>
