<svg width="10" height="10" viewBox="0 0 10 10" fill="none" xmlns="http://www.w3.org/2000/svg">
<path d="M6.73966 0.757446C6.01221 0.757446 5.3262 1.04362 4.81819 1.54254C4.31018 1.04362 3.62411 0.757446 2.89672 0.757446C1.38301 0.757446 0.151489 1.98897 0.151489 3.50268C0.151489 4.89077 0.934653 6.30487 2.41637 7.592C3.502 8.53506 4.57497 9.08151 4.62008 9.1043C4.68237 9.13577 4.75028 9.15147 4.81819 9.15147C4.8861 9.15147 4.95401 9.13571 5.01629 9.1043C5.06141 9.08151 6.13438 8.53506 7.22001 7.592C8.70173 6.30487 9.48489 4.89077 9.48489 3.50268C9.48489 1.98897 8.25337 0.757446 6.73966 0.757446ZM4.81819 8.21169C4.01235 7.75594 1.0304 5.90655 1.0304 3.50268C1.0304 2.4736 1.86764 1.63635 2.89672 1.63635C3.52303 1.63635 4.10452 1.94883 4.4521 2.47225C4.53354 2.59489 4.67094 2.6686 4.81819 2.6686C4.96543 2.6686 5.10284 2.59489 5.18428 2.47225C5.53192 1.94883 6.11334 1.63635 6.73971 1.63635C7.76879 1.63635 8.60604 2.4736 8.60604 3.50268C8.60598 5.90655 5.62403 7.75594 4.81819 8.21169Z" fill="#FFBB01"/>
</svg>
